<?xml version="1.0" encoding="UTF-8"?>
<svg id="_图层_1" xmlns="http://www.w3.org/2000/svg" version="1.1" viewBox="0 0 48 51.21">
  <!-- Generator: Adobe Illustrator 30.1.0, SVG Export Plug-In . SVG Version: 2.1.1 Build 136)  -->
  <defs>
    <style>
      .st0 {
        fill: #fd9302;
      }

      .st1 {
        fill: #f9e2bd;
      }

      .st2 {
        fill: #f7eee1;
      }

      .st3 {
        fill: #f8efe1;
      }

      .st4 {
        fill: #f6e6ca;
      }

      .st5 {
        fill: #f77e02;
      }

      .st6 {
        fill: #f48202;
      }

      .st7 {
        fill: #f7efe3;
      }
    </style>
  </defs>
  <g id="_图层_2">
    <g>
      <path class="st1" d="M18.17,14.83c.81-.12,1.27-.91,1.03-1.68-.12-.41-.48-.75-.87-.87-.48-.12-.91,0-1.29.29l-3.81-3.27s-.17-.17-.15-.36c.12-.51-.12-1.01-.63-1.27l.39-4.13c.69-.15,1.29-.57,1.47-1.23.17-.63,0-1.29-.41-1.73-.41-.45-1.05-.63-1.68-.48-.75.21-1.27.91-1.27,1.68s.45,1.47,1.2,1.71l-.43,4.11c-.55.15-.84.55-.87,1.08l-6.27,3.36-1.23-.15c-.12-.81-.69-1.39-1.47-1.49-.63-.09-1.25.24-1.59.75-.36.51-.43,1.17-.12,1.77.33.63,1.03.99,1.73.91.63-.09,1.2-.53,1.41-1.2.6,0,1.2.24,1.65,0l6.05-3.21.36.29c.33.27.81.17,1.2,0l4.05,3.48c-.17.72.17,1.35.81,1.61l-.51,5.55-5.71,3.45-4.89-2.01c.03-.81-.55-1.41-1.29-1.44-.75,0-1.35.53-1.39,1.29-.03.63.33,1.17.87,1.35.6.21,1.2,0,1.59-.53l4.77,1.97-.27,6.72-4.2,3.6-.96-.27-2.11-.72c0-1.03-.84-1.83-1.89-1.73-.87.09-1.47.81-1.53,1.56-.05.84.48,1.56,1.23,1.77.81.21,1.63-.15,2.01-.93l2.97.96.33,3.03c-.6.27-.84.87-.69,1.44s.69.96,1.32.87c.57-.07,1.01-.57,1.05-1.17,0-.57-.36-1.05-.96-1.23l-.33-3.09,4.17-3.55,1.68,1.2c.17.12.33.21.51.33.15-.03.45-.43.24-.55l-2.13-1.59.12-3.55.15-3.17,5.52-3.36c.39.24.65.57,1.05.75.17,0,.45-.45.27-.57l-.81-.69s-.03-.24-.03-.33l.51-5.37h0l.03.03.03.03ZM2.76,12.41c-.15.48-.65.84-1.23.72-.69-.15-1.03-.81-.81-1.41s.89-.93,1.47-.63c.48.24.72.81.55,1.32h.03ZM12.51,8.88c-.05.17-.24.36-.51.33-.27,0-.43-.21-.45-.39-.05-.24,0-.48.24-.6.21-.12.45-.09.6.05.15.12.21.36.15.6,0,0-.03,0-.03,0ZM5.73,21.84c-.03.24-.21.51-.53.57-.33.05-.67-.12-.75-.36-.15-.29-.09-.6.09-.81.24-.24.6-.29.87-.12.27.15.36.45.33.75h0v-.03h-.01ZM2.76,33.96c-.12.48-.51.81-.93.84-.48.03-.93-.19-1.11-.67-.19-.45-.05-.96.29-1.27.36-.31.87-.36,1.25-.09.39.24.63.72.51,1.17h-.03.01ZM7.2,39.03c.21.12.39.36.33.63-.05.27-.27.45-.48.48-.27.03-.48-.07-.6-.27-.12-.24-.12-.48.05-.69.17-.19.45-.27.69-.15ZM17.35,13.83c-.15-.33-.03-.77.36-.93.33-.15.75,0,.93.36.17.39-.03.79-.36.91-.36.15-.75,0-.93-.33h0Z"/>
      <path class="st1" d="M16.2,22.41l-3.36,1.99s-.15.33-.05.43c.09.12.27.15.41.07l3.33-1.95c.17-.09.21-.29.09-.48-.09-.12-.27-.15-.45-.03h.03v-.03Z"/>
      <path class="st1" d="M12.72,30.57c-.15-.12-.39-.12-.48.03-.12.19-.05.36.12.48l1.41,1.03c.17-.12.29-.31.29-.55-.48-.31-.91-.63-1.35-.96v-.03Z"/>
    </g>
    <path class="st5" d="M12.03,2.67c-.45-.33-.55-.91-.36-1.35.17-.45.63-.75,1.17-.69.48.05.84.43.93.81.12.48-.05.96-.41,1.23-.39.31-.93.33-1.35,0h.03-.01Z"/>
  </g>
  <g id="_图层_11">
    <g>
      <path class="st4" d="M47.33,40.73l-3.12-6.55-8.19-17.04c-.24-.48-.43-.96-.43-1.49V6.48c0-.51.33-.87.79-.99.87-.21,1.41-.93,1.35-1.8-.07-.75-.72-1.56-1.59-1.56h-15.87c-.79,0-1.41.67-1.56,1.35-.21.93.41,1.8,1.32,2.01.41.09.75.45.75.93v9.15c0,.63-.24,1.17-.51,1.71l-3.84,7.83-2.37,4.85-5.19,10.73c-1.2,2.52-.81,5.49.93,7.65,1.29,1.59,3.33,2.79,5.47,2.79h25.71c1.89-.15,3.63-.93,4.92-2.25,1.27-1.29,2.01-2.97,2.07-4.8.03-1.2-.12-2.31-.67-3.43h0l.03.07h0ZM41.76,44.43c-.33.79-1.08,2.19-2.04,2.28h-19.92c-.36-.07-.51-.27-.41-.63l7.35-10.39c-3.17.39-6.63.67-9.69-.57-.39-.15-1.53-.67-1.73-.96,0-.03-.05-.09-.05-.12l3.36-6.93,3.6-7.23c.36-.72.84-1.35,1.15-2.13.24-.51.36-1.03.41-1.59V5.49h8.83v9.91c-.03.99.15,1.92.63,2.76l.57,1.03c.31.57.67,1.15.91,1.71h-10.32c-.39,0-.6.36-.75.65l-1.47,2.97s0,.27.05.33c.05.09.17.12.33.12h13.56c.36,0,.67.15.81.45s.33.57.43.93c.09.24.07.63-.12.87l-10.77,14.91c-.09.19,0,.36.19.39,0,0,15.24.03,15.36.12.43.36,0,1.35-.19,1.8h-.07Z"/>
      <path class="st4" d="M29.07,32.19l2.09-3.07v-.31c-.07-.09-.15-.15-.31-.15h-10.29c-.33,0-.57.15-.72.45l-1.49,3.03c0,.19,0,.45.27.45h9.84c.31,0,.48-.15.63-.39h0l-.03-.03h.01Z"/>
    </g>
    <g>
      <path class="st0" d="M41.67,42.63h-15.09c-.12,0-.21-.09-.27-.19-.03-.09-.07-.24,0-.36l8.52-11.57.72-.19c1.23-.31,2.45-.31,3.72,0l.79,1.61,4.08,8.52-2.45,2.19h0v-.03h-.01Z"/>
      <path class="st6" d="M21.99,42.51l-2.52,3.57s-.03.27,0,.36c.05.09.15.19.29.19h19.92c.43,0,.69-.33.93-.6.67-.84,1.17-1.73,1.35-2.79.07-.27-.09-.6-.36-.6h-8.88s3.33-.91,5.04-1.32c1.89-.43,3.93-.84,5.85-.93.15,0,.31,0,.45.07.27.55.55,1.08.79,1.65.45,1.17.45,2.43-.09,3.6-.72,1.59-2.37,2.76-4.17,2.76H15.63c-1.41,0-2.73-.67-3.6-1.73-1.05-1.29-1.41-3.07-.69-4.59l3.81-7.92c0,.79.17,2.97,1.73,5.04,1.85,2.45,4.41,3.12,5.09,3.27h0v-.03Z"/>
      <path class="st0" d="M21.99,42.51l4.83-6.75v-.15s-.09-.07-.15-.03c-.84.12-1.61.21-2.45.27-3,.21-6.43,0-8.95-1.83l-.12.19c0,.67.12,3.51,2.37,5.85,1.71,1.8,3.72,2.31,4.51,2.45h-.04Z"/>
    </g>
    <g>
      <path class="st3" d="M16.27,44.25c-.87.36-1.8-.07-2.09-.87s.12-1.77.99-2.04c.79-.24,1.61.15,1.92.91.31.76,0,1.61-.81,1.97h0v.03Z"/>
      <path class="st7" d="M18.36,39.27c-.63.51-1.61.24-1.85-.55-.36-1.15.91-2.13,1.89-1.41.63.48.6,1.44,0,1.92h0l-.03.03h-.01Z"/>
      <path class="st2" d="M20.47,41.04c-.33.24-.87.12-1.05-.27-.29-.6.33-1.11.93-.93.45.19.48.91.12,1.17h0v.03Z"/>
    </g>
  </g>
</svg>