<svg xmlns="http://www.w3.org/2000/svg" xmlns:xlink="http://www.w3.org/1999/xlink" fill="none" version="1.1" width="32" height="32" viewBox="-2 -2 36 36"><defs><clipPath id="master_svg0_6_58"><rect x="0" y="0" width="32" height="32" rx="0"/></clipPath></defs><g clip-path="url(#master_svg0_6_58)"><path d="M12.462483,14.39105L3.9285680999999997,14.39105C2.86785555,14.39105,2,13.523194,2,12.462481L2,3.9285680999999997C2,2.86785555,2.86785573,2,3.9285680999999997,2L12.462483,2C13.523195,2,14.391051,2.86785573,14.391051,3.9285680999999997L14.391051,12.462483C14.391051,13.523195,13.523195,14.391051,12.462483,14.39105ZM12.462483,28.903528L3.9285680999999997,28.903528C2.86785555,28.903528,2,28.035671,2,26.97496L2,18.441044C2,17.380330999999998,2.86785573,16.512473999999997,3.9285680999999997,16.512473999999997L12.462483,16.512473999999997C13.523195,16.512473999999997,14.391051,17.380330999999998,14.391051,18.441044L14.391051,26.974958C14.391051,28.035669,13.523195,28.903524,12.462483,28.903528ZM27.071386,28.903528L18.537472,28.903528C17.476759,28.903528,16.608905,28.035671,16.608905,26.97496L16.608905,18.441044C16.608905,17.380330999999998,17.476759,16.512473999999997,18.537472,16.512473999999997L27.071386,16.512473999999997C28.132097,16.512473999999997,28.999954,17.380330999999998,28.999954,18.441044L28.999954,26.974958C28.999954,28.035669,28.132097,28.903524,27.071386,28.903528Z" fill="#F97316" fill-opacity="1" style="mix-blend-mode:passthrough"/><path d="M29.00166280529785,8.218169961977004Q29.00166280529785,8.369706861977004,28.994227805297854,8.521061161977006Q28.98679180529785,8.672415561977004,28.971938805297853,8.823222861977005Q28.957084805297853,8.974029761977004,28.93484980529785,9.123925961977005Q28.91261280529785,9.273822561977006,28.883048805297854,9.422447461977004Q28.853484805297853,9.571072361977006,28.81666380529785,9.718067961977006Q28.779842805297854,9.865063461977005,28.73585180529785,10.010075361977005Q28.69186180529785,10.155086261977004,28.64080880529785,10.297764561977004Q28.58975580529785,10.440442861977004,28.53176380529785,10.580445061977006Q28.47377180529785,10.720446361977006,28.408981805297852,10.857434061977004Q28.34418980529785,10.994421761977005,28.27275480529785,11.128065861977005Q28.201318805297852,11.261708961977005,28.123409805297854,11.391686261977005Q28.04550380529785,11.521664361977004,27.961311805297854,11.647661961977006Q27.877119805297852,11.773661361977005,27.786847805297853,11.895376961977005Q27.69657480529785,12.017092461977006,27.60043780529785,12.134231961977004Q27.504300805297852,12.251371961977005,27.402532805297852,12.363652961977005Q27.30076380529785,12.475933961977004,27.19360880529785,12.583086961977004Q27.08645480529785,12.690239961977005,26.97416980529785,12.792004961977005Q26.86188480529785,12.893770961977005,26.744742805297854,12.989904961977006Q26.627599705297854,13.086037961977006,26.50588040529785,13.176307961977004Q26.38416290529785,13.266578961977006,26.258160605297853,13.350767961977006Q26.132159205297853,13.434956961977004,26.002178205297852,13.512862961977005Q25.87219810529785,13.590767961977004,25.73855110529785,13.662202961977005Q25.60490420529785,13.733635961977004,25.467912705297852,13.798425961977005Q25.33092120529785,13.863216961977004,25.190916105297852,13.921207961977005Q25.05091090529785,13.979198961977005,24.908228905297854,14.030250961977005Q24.765546805297852,14.081301961977005,24.620531605297852,14.125290961977004Q24.47551630529785,14.169279961977004,24.32851700529785,14.206098961977006Q24.181517605297852,14.242919961977005,24.032888905297852,14.272482961977005Q23.884260205297853,14.302046961977005,23.73436020529785,14.324281961977006Q23.58445930529785,14.346516961977006,23.43364860529785,14.361370961977006Q23.282837905297853,14.376222961977005,23.13147930529785,14.383658961977005Q22.98012110529785,14.391094961977005,22.828580405297853,14.391094961977005Q22.67703960529785,14.391094961977005,22.52568150529785,14.383658961977005Q22.37432340529785,14.376222961977005,22.223512605297852,14.361370961977006Q22.072701405297853,14.346516961977006,21.922801005297853,14.324281961977006Q21.772900605297853,14.302046961977005,21.62427140529785,14.272482961977005Q21.475642205297852,14.242919961977005,21.328643305297852,14.206098961977006Q21.181644405297853,14.169279961977004,21.03662920529785,14.125290961977004Q20.891614005297853,14.081301961977005,20.748931405297853,14.030250961977005Q20.606248905297853,13.979198961977005,20.466243705297853,13.921207961977005Q20.32623840529785,13.863216961977004,20.189247105297852,13.798426961977006Q20.05225610529785,13.733636961977005,19.91860940529785,13.662203961977005Q19.78496240529785,13.590768961977005,19.654981605297852,13.512862961977005Q19.52500080529785,13.434956961977004,19.39899920529785,13.350767961977006Q19.272997905297853,13.266578961977006,19.151279405297853,13.176307961977004Q19.02956080529785,13.086037961977006,18.912418405297853,12.989904961977006Q18.79527570529785,12.893770961977005,18.682991505297853,12.792004961977005Q18.570707105297853,12.690239961977005,18.46355180529785,12.583086961977004Q18.35639620529785,12.475933961977004,18.254627705297853,12.363652961977005Q18.152859305297852,12.251371961977005,18.05672300529785,12.134231961977004Q17.96058650529785,12.017092461977006,17.870313905297852,11.895376961977005Q17.780041205297852,11.773661361977005,17.695849705297853,11.647661961977006Q17.61165821529785,11.521664361977004,17.533750715297852,11.391686261977005Q17.45584326529785,11.261708961977005,17.38440757529785,11.128065861977005Q17.31297177529785,10.994421761977005,17.24817979529785,10.857434061977004Q17.183387815297852,10.720446361977006,17.12539574529785,10.580445061977006Q17.06740367529785,10.440442861977004,17.016351165297852,10.297764561977004Q16.96529865529785,10.155086261977004,16.921308725297852,10.010075361977005Q16.877318785297852,9.865063461977005,16.840497405297853,9.718067961977006Q16.80367602529785,9.571072361977006,16.77411191529785,9.422447461977004Q16.74454779929785,9.273822561977006,16.72231216729785,9.123925961977005Q16.70007653929785,8.974029761977004,16.685222957297853,8.823222861977005Q16.670369375297852,8.672415561977004,16.66293362809785,8.521061161977006Q16.65549788089785,8.369706861977004,16.65549788089785,8.218169961977004Q16.65549788089785,8.066633061977004,16.66293362809785,7.915278661977005Q16.670369375297852,7.763924361977005,16.685222957297853,7.613117461977005Q16.70007653929785,7.462310061977005,16.72231216729785,7.312413461977005Q16.74454779929785,7.162516861977005,16.77411191529785,7.013891961977005Q16.80367602529785,6.865266561977005,16.840497405297853,6.718271561977005Q16.877318785297852,6.571275961977005,16.921308725297852,6.426264061977005Q16.96529865529785,6.281252661977005,17.016351165297852,6.138573961977005Q17.06740367529785,5.995895161977005,17.12539574529785,5.855893361977005Q17.183387815297852,5.715891661977005,17.24817979529785,5.578904161977005Q17.31297183529785,5.441916461977005,17.38440763529785,5.308273061977005Q17.455843325297852,5.1746294619770055,17.53375083529785,5.044652061977005Q17.61165833529785,4.914674561977005,17.69584980529785,4.788676261977005Q17.780041205297852,4.6626780619770045,17.870313905297852,4.5409627619770045Q17.96058650529785,4.419247461977005,18.05672300529785,4.302107861977005Q18.152859305297852,4.184968261977005,18.25462780529785,4.072686961977006Q18.35639620529785,3.960405361977005,18.46355180529785,3.853252661977005Q18.570707105297853,3.746099961977005,18.682991505297853,3.644334061977005Q18.79527570529785,3.5425682619770047,18.912418405297853,3.446434261977005Q19.02956080529785,3.350300361977005,19.151279405297853,3.260029961977005Q19.272997905297853,3.169759561977005,19.39899920529785,3.085570261977005Q19.52500080529785,3.001380951977005,19.65498180529785,2.923475471977005Q19.784962605297853,2.845570001977005,19.918609605297853,2.774136031977005Q20.052256305297853,2.702702071977005,20.189247405297852,2.637911761977005Q20.32623840529785,2.573121461977005,20.466243705297853,2.5151308219770048Q20.606248905297853,2.457140211977005,20.748931405297853,2.406089041977005Q20.891614005297853,2.355037841977005,21.03662920529785,2.311049011977005Q21.181644405297853,2.267060201977005,21.328643305297852,2.230239781977005Q21.475642205297852,2.193419321977005,21.62427140529785,2.163855961977005Q21.772900605297853,2.134292602977005,21.922801005297853,2.112057543977005Q22.072701405297853,2.089822478977005,22.223512605297852,2.074969278977005Q22.37432340529785,2.060116075977005,22.52568150529785,2.052680518977005Q22.67703960529785,2.045244961977005,22.828580405297853,2.045244961977005Q22.98012110529785,2.045244961977005,23.131479705297853,2.052680518977005Q23.282837905297853,2.060116075977005,23.43364860529785,2.074969278977005Q23.58445930529785,2.089822478977005,23.73435930529785,2.112057536977005Q23.88425970529785,2.134292602977005,24.032888405297854,2.163855961977005Q24.181517605297852,2.193419321977005,24.328516505297852,2.230239761977005Q24.475515805297853,2.267060201977005,24.62053110529785,2.311049011977005Q24.765546805297852,2.355037841977005,24.90822790529785,2.406089041977005Q25.05091090529785,2.457140211977005,25.190916105297852,2.5151308219770048Q25.33092120529785,2.573121461977005,25.467912705297852,2.637911761977005Q25.60490420529785,2.702702071977005,25.73855110529785,2.774136091977005Q25.87219810529785,2.845570001977005,26.002178205297852,2.923475471977005Q26.132159205297853,3.001380951977005,26.258160605297853,3.085570261977005Q26.38416290529785,3.169759561977005,26.50588130529785,3.260029961977005Q26.627599705297854,3.350300361977005,26.744742805297854,3.446434261977005Q26.86188480529785,3.5425682619770047,26.97416880529785,3.644334061977005Q27.086452805297853,3.746099961977005,27.19360780529785,3.853252661977005Q27.30076380529785,3.960405361977005,27.40253180529785,4.072686961977006Q27.504300805297852,4.184968261977005,27.600436805297853,4.302107861977005Q27.69657280529785,4.419247461977005,27.78684580529785,4.5409627619770045Q27.87711880529785,4.6626780619770045,27.96131080529785,4.788676261977005Q28.045501805297853,4.914674561977005,28.12340880529785,5.044652061977005Q28.20131680529785,5.1746294619770055,28.272752805297852,5.308273061977005Q28.344188805297854,5.441916461977005,28.408979805297854,5.578903961977005Q28.47377180529785,5.715891661977005,28.53176380529785,5.855893361977005Q28.58975580529785,5.995895161977005,28.64080880529785,6.138573461977005Q28.69186180529785,6.281252661977005,28.735852805297853,6.426264061977005Q28.779842805297854,6.571275461977005,28.81666380529785,6.718271061977005Q28.853484805297853,6.865266561977005,28.883048805297854,7.013891461977005Q28.91261280529785,7.162516361977005,28.93484980529785,7.312412961977005Q28.957084805297853,7.462310061977005,28.971938805297853,7.613117961977005Q28.98679180529785,7.763924361977005,28.99422880529785,7.915278661977005Q29.00166280529785,8.066633061977004,29.00166280529785,8.218169961977004Z" fill="#F97316" fill-opacity="1" style="mix-blend-mode:passthrough"/></g></svg>