<?xml version="1.0" encoding="UTF-8"?>
<svg id="_图层_1" data-name="图层_1" xmlns="http://www.w3.org/2000/svg" version="1.1" viewBox="-5 -5 42 42">
  <!-- Generator: Adobe Illustrator 30.1.0, SVG Export Plug-In . SVG Version: 2.1.1 Build 136)  -->
  <defs>
    <style>
      .st0 {
        fill: #f97316;
        fill-rule: evenodd;
      }
    </style>
  </defs>
  <path class="st0" d="M5.78,6.62C10.95.3,20.26-.63,26.58,4.54s7.25,14.48,2.08,20.8c-5.17,6.32-14.48,7.25-20.8,2.08-3.42-2.8-5.41-6.99-5.42-11.42,0-.78.63-1.41,1.41-1.41.78,0,1.41.63,1.41,1.41h0c0,6.6,5.37,11.95,11.97,11.94,6.6,0,11.94-5.37,11.93-11.97,0-6.6-5.37-11.94-11.97-11.93-3.58,0-6.97,1.62-9.24,4.39l-3.21,3.21h5.4c.78,0,1.41.63,1.41,1.41,0,.78-.63,1.41-1.41,1.41H1.41C.63,14.46,0,13.82,0,13.04H0V4.3C0,3.52.63,2.89,1.41,2.89s1.41.63,1.41,1.41h0v5.4s2.96-3.08,2.96-3.08ZM16.58,7.26c.78,0,1.41.63,1.41,1.41h0v6.55l5.14,2.57c.71.35,1,1.22.64,1.93s-1.22,1-1.93.64l-5.91-2.96c-.48-.25-.78-.74-.77-1.29v-7.45c0-.78.63-1.41,1.41-1.41h0Z"/>
</svg>