<svg xmlns="http://www.w3.org/2000/svg" xmlns:xlink="http://www.w3.org/1999/xlink" fill="none" version="1.1" width="32" height="32" viewBox="0 0 32 32"><defs><clipPath id="master_svg0_6_3"><rect x="0" y="0" width="32" height="32" rx="0"/></clipPath></defs><g clip-path="url(#master_svg0_6_3)"><path d="M16,3.99999427795C16.555201,3.99999427795,16.6464,4.83199441375,16.1712,5.11999419375C11.8346052,7.73813389375,11.105193100000001,13.73090549375,14.687143,17.31285359375C18.269089,20.89480159375,24.261862,20.16538959375,26.880001,15.82879459375C27.167999,15.35359459375,28,15.44479359375,28,15.99999559375C28,22.62741059375,22.627417,27.99999659375,16,27.99999659375C9.372582900000001,27.99999659375,4,22.62741059375,4,15.99999559375C4,9.37257719375,9.372582900000001,3.99999427795,16,3.99999427795ZM19.759999999999998,11.35519359375C19.846446999999998,11.13231749375,20.060944,10.985448793749999,20.299999,10.985448793749999C20.539055,10.985448793749999,20.753551,11.13231609375,20.84,11.35519359375L21.027201,11.835193193750001C21.086401,11.985592793750001,21.2048,12.10399339375,21.3536,12.16319369375L21.832001,12.35199359375C22.054249,12.43986989375,22.200253,12.65460209375,22.200253,12.89359279375C22.200253,13.13258359375,22.054249,13.34731669375,21.832001,13.43519309375L21.3536,13.62399289375C21.204063,13.68339349375,21.085869,13.80216689375,21.027201,13.95199299375L20.84,14.43199259375C20.753551,14.65486959375,20.539055,14.80173759375,20.299999,14.80173759375C20.060944,14.80173759375,19.846446999999998,14.65486859375,19.759999999999998,14.43199259375L19.571199999999997,13.95199299375C19.512531,13.80216689375,19.394339000000002,13.68339349375,19.244801000000002,13.62399289375L18.768000999999998,13.43519309375C18.545752999999998,13.34731669375,18.399748000000002,13.13258359375,18.399748000000002,12.89359279375C18.399748000000002,12.65460299375,18.545752999999998,12.43986889375,18.768000999999998,12.35199359375L19.244801000000002,12.16319369375C19.394339000000002,12.10379219375,19.512531,11.98501919375,19.571199999999997,11.835193193750001L19.759999999999998,11.35519359375ZM25.416,4.24639320375L25.480001,4.36799335375L25.996801,5.68319319375C26.040001,5.79519339375,26.118401,5.89119339375,26.217602,5.95519329375L26.323202,6.01119299375L27.632002,6.529593193749999C28.078403,6.70559309375,28.118401,7.29759289375,27.753601,7.54879329375L27.632002,7.61279299375L26.323202,8.13119319375C26.21175,8.17546749375,26.116734,8.25315619375,26.051201,8.35359339375L25.996801,8.45919319375L25.480001,9.77279279375C25.402769,9.97216179375,25.221985,10.11276909375,25.009741,10.13854599375C24.797497,10.16432329375,24.58831,10.07107829375,24.465603,9.89599319375L24.401602,9.77279279375L23.884802,8.45919319375C23.840954,8.347961393750001,23.763845,8.25297169375,23.664001,8.18719289375L23.556801,8.13119319375L22.248001,7.61279299375C22.04907,7.5336310937499995,21.909407,7.351958793750001,21.884041,7.1393622937500005C21.858677,6.92676619375,21.951679,6.71733479375,22.126402,6.59359309375L22.248001,6.529593193749999L23.556801,6.01119299375C23.668257,5.96691839375,23.763271,5.88922949375,23.828802,5.7887929937500004L23.884802,5.68319319375L24.400002,4.36799305375C24.477261,4.16806349375,24.658615,4.02714475075,24.871435,4.00167338085C25.084255,3.97620201075,25.293743,4.07034270475,25.416,4.24639320375Z" fill="#3D3D3D" fill-opacity="1" style="mix-blend-mode:passthrough"/></g></svg>