<svg xmlns="http://www.w3.org/2000/svg" xmlns:xlink="http://www.w3.org/1999/xlink" fill="none" version="1.1" width="32" height="32" viewBox="-2 -2 36 36"><defs><clipPath id="master_svg0_5_03"><rect x="0" y="0" width="32" height="32" rx="0"/></clipPath></defs><g clip-path="url(#master_svg0_5_03)"><path d="M26.89596984375,23.9840087890625L21.27996684375,18.4480097890625C21.64796684375,17.6960097890625,21.83996584375,16.8320097890625,21.83996584375,15.9520087890625C21.83996584375,12.7360097890625,19.24796684375,10.1280088890625,16.01596684375,10.1280088890625C15.48796584375,10.1280088890625,14.95996684375,10.1920089890625,14.46396684375,10.3360089890625L16.95996684375,12.8160077890625C17.98396684375,13.8560077890625,17.91996684375,15.6000077890625,16.79996684375,16.7200077890625C15.67996684375,17.8400077890625,13.93596684375,17.9040087890625,12.91196584375,16.8800077890625L10.43196674375,14.3840087890625C10.28796574375,14.8800087890625,10.22396754375,15.4080087890625,10.22396754375,15.9520087890625C10.22396754375,19.1680087890625,12.83196684375,21.7920097890625,16.04796684375,21.7920097890625C16.92796684375,21.7920097890625,17.79196784375,21.5840087890625,18.54396584375,21.2160087890625L24.12796784375,26.7680067890625C24.84796884375,27.4720057890625,26.03196684375,27.4240077890625,26.79996684375,26.6560097890625C27.53596884375,25.8880077890625,27.58396684375,24.6880077890625,26.89596984375,23.9840087890625ZM25.39196984375,26.2400097890625C24.84797084375,26.2400097890625,24.39997084375,25.7920057890625,24.39997084375,25.2480067890625C24.39997084375,24.7200087890625,24.86396984375,24.2720067890625,25.39196984375,24.2720067890625C25.93596884375,24.2720067890625,26.38396884375,24.7040077890625,26.38396884375,25.2480067890625C26.36796784375,25.8080077890625,25.93596884375,26.2400097890625,25.39196984375,26.2400097890625ZM28.23996884375,13.3600077890625L27.66396884375,13.3600077890625L26.33596784375,13.3440087890625L26.31996684375,13.3440087890625C26.04796784375,13.3280087890625,25.79196784375,13.2320087890625,25.58396684375,13.0880087890625C25.56796684375,13.0880087890625,25.56796684375,13.0880087890625,25.55196784375,13.0720087890625C25.08796884375,12.7680087890625,24.76796884375,12.2240087890625,24.78396584375,11.6160096890625C24.78396584375,11.4240092890625,24.81596584375,11.2480086890625,24.87996884375,11.0720090890625C24.92796884375,10.8800096890625,25.02396584375,10.6880092890625,25.15196784375,10.5440082890625L25.43996784375,10.2400083890625L26.09596784375,9.5840086890625L26.47996684375,9.1840085890625C27.03996884375,8.448008989062501,27.03996884375,7.4080090890625,26.46396684375,6.6720084890625L25.32796684375,5.5040087890625C24.57596584375,4.9280085890625,23.53596684375,4.9120084890625,22.78396584375,5.4720086890625L22.36796384375,5.872008589062499L21.43996384375,6.8160085890625L21.42396384375,6.8160085890625C20.92796184375,7.2160086890625,20.22396284375,7.2960085890625,19.64796284375,7.0560087890625C19.45596284375,6.9600090890625,19.27996284375,6.8480090890625,19.10396384375,6.6880087890625C18.83196484375,6.4000091890625,18.67196484375,6.0480088890625,18.62396284375,5.6640085890625L18.62396284375,3.7440087890625C18.51196284375,2.8160088690625003,17.77596284375,2.0800088490625,16.83196384375,1.9840087890625L15.21596384375,1.9840087890625C14.28796384375,2.0800088490625,13.53596384375,2.8160088690625003,13.40796384375,3.7440087890625L13.40796384375,5.6480090890625C13.40796384375,5.6960088890625,13.39196384375,5.7440087890625,13.37596384375,5.7920090890625L13.37596384375,5.8080088890625C13.35996484375,5.8560087890625,13.35996484375,5.904008589062499,13.34396484375,5.9520091890625C13.32796484375,5.9520091890625,13.32796484375,5.9680089890625005,13.32796484375,5.9680089890625005C13.31196484375,6.0160088890625,13.29596484375,6.0800089890625,13.27996484375,6.1120090890625C13.26396484375,6.1600088890625,13.23196384375,6.2080087890625,13.21596384375,6.2560095890625C13.11996484375,6.4640092890625,12.97596484375,6.6400098890625,12.79996384375,6.7840094890625C12.49596384375,7.0400089890625,12.09596484375,7.2000088890625,11.66396424375,7.2000088890625C11.26396464375,7.2000088890625,10.87996484375,7.0560087890625,10.59196474375,6.8160085890625L10.30396464375,6.5120086890625L9.64796494375,5.872008589062499L9.247964843750001,5.4720086890625C8.51196524375,4.9120084890625,7.47196534375,4.9120084890625,6.73596524375,5.5040087890625L5.56796524375,6.6560086890625C4.97596524375,7.3920087890625,4.97596524375,8.4320091890625,5.535965243750001,9.1840085890625L5.93596534375,9.5840086890625L6.87996534375,10.5120086890625C6.89596514375,10.5440082890625,6.91196534375,10.5600099890625,6.92796514375,10.5920095890625C6.94396494375,10.5920095890625,6.94396494375,10.6240081890625,6.97596504375,10.6560096890625C6.99196484375,10.6720094890625,6.99196484375,10.7040099890625,7.02396484375,10.7360095890625C7.02396484375,10.7360095890625,7.05596494375,10.7680091890625,7.05596494375,10.7840098890625C7.07196474375,10.8000096890625,7.08796544375,10.8480100890625,7.11996554375,10.8800096890625C7.11996554375,10.8960094890625,7.11996554375,10.9120092890625,7.13596534375,10.9280099890625C7.15196514375,10.9600095890625,7.15196514375,10.9920100890625,7.18396474375,11.0240096890625C7.18396474375,11.0400094890625,7.18396474375,11.0560092890625,7.19996454375,11.0720100890625C7.19996454375,11.1200103890625,7.23196504375,11.1680097890625,7.23196504375,11.2160100890625C7.24796484375,11.2640113890625,7.24796484375,11.3120107890625,7.24796484375,11.3760108890625C7.32796474375,11.8880099890625,7.15196514375,12.4320107890625,6.75196504375,12.8160107890625C6.46396494375,13.1040107890625,6.09596534375,13.2640117890625,5.72796464375,13.3120097890625L3.82396484375,13.3120097890625C2.89596462375,13.4400107890625,2.15996490375,14.1920097890625,2.06396484375,15.1040097890625L2.06396484375,16.7360097890625C2.15996490375,17.680009789062503,2.89596462375,18.4160097890625,3.82396484375,18.5280097890625L4.39996484375,18.5280097890625L5.72796464375,18.5440077890625C5.77596454375,18.5440077890625,5.83996484375,18.5440077890625,5.8879647437500005,18.5600087890625L5.93596454375,18.5600087890625C5.983964443750001,18.5760077890625,5.9999647437500006,18.5920087890625,6.04796484375,18.5920087890625C6.76796484375,18.8160077890625,7.27996444375,19.4720077890625,7.27996444375,20.2720067890625C7.27996444375,20.6720087890625,7.13596434375,21.0560077890625,6.89596464375,21.3600077890625L6.60796454375,21.6480087890625L5.93596454375,22.3040107890625L5.53596444375,22.7040077890625C4.97596454375,23.4560107890625,4.97596454375,24.4960097890625,5.55196424375,25.2160107890625L6.70396424375,26.3840087890625C7.43996434375,26.9760097890625,8.47996424375,26.9760097890625,9.23196414375,26.4000087890625L9.63196374375,26.0000097890625L10.57596394375,25.0720117890625C10.57596394375,25.0560097890625,10.59196374375,25.0560097890625,10.59196374375,25.0560097890625C10.62396334375,25.0240077890625,10.67196364375,25.0080067890625,10.68796344375,24.9600087890625C10.71996304375,24.9600087890625,10.71996304375,24.9600087890625,10.75196364375,24.9440077890625C10.76796344375,24.9280067890625,10.79996394375,24.9120067890625,10.81596374375,24.8960057890625C10.84796334375,24.8800047890625,10.89596464375,24.8800047890625,10.92796324375,24.8480067890625C10.94396304375,24.8320067890625,10.95996284375,24.8320067890625,10.97596454375,24.8160057890625C11.02396484375,24.8160057890625,11.05596444375,24.8000047890625,11.11996464375,24.7680067890625C11.18396474375,24.7520067890625,11.21596434375,24.7200047890625,11.26396464375,24.7200047890625L11.27996444375,24.7200047890625C11.32796474375,24.7040037890625,11.37596414375,24.7040037890625,11.42396454375,24.6880077890625L11.43996434375,24.6880077890625C11.48796464375,24.6880077890625,11.51996424375,24.6880077890625,11.55196384375,24.6720067890625C12.03196434375,24.6560057890625,12.52796384375,24.8160057890625,12.87996484375,25.2000047890625C13.18396484375,25.4880067890625,13.32796484375,25.8560047890625,13.39196384375,26.2400037890625L13.39196384375,28.1280077890625C13.50396384375,29.0720057890625,14.25596384375,29.8080057890625,15.18396384375,29.9040087890625L16.79996684375,29.9040087890625C17.72796684375,29.8080057890625,18.46396684375,29.0720057890625,18.59196684375,28.1600097890625L18.59196684375,27.6000097890625L18.60796584375,26.6400087890625L18.60796584375,26.2560097890625C18.63996484375,25.9200097890625,18.76796484375,25.6320117890625,18.95996484375,25.3760107890625C18.97596584375,25.3440077890625,18.99196384375,25.3280067890625,19.00796484375,25.3120117890625C19.02396584375,25.3120117890625,19.03996484375,25.2640077890625,19.05596684375,25.2640077890625C19.16796684375,25.1520117890625,19.27996684375,25.0560097890625,19.40796684375,24.9600087890625C19.43996584375,24.9600087890625,19.48796684375,24.9280127890625,19.50396584375,24.9120117890625C19.53596484375,24.8960097890625,19.53596484375,24.8960097890625,19.55196584375,24.8960097890625L19.58396484375,24.8960097890625C19.61596484375,24.8800087890625,19.64796684375,24.8800087890625,19.67996584375,24.8480067890625L18.11196484375,23.2800097890625C17.439964843749998,23.4720057890625,16.71996584375,23.5680067890625,15.98396484375,23.5680067890625C11.75996394375,23.5680067890625,8.35196544375,20.1280077890625,8.35196544375,15.9200087890625C8.35196544375,11.6800078890625,11.79196354375,8.2720083890625,16.01596584375,8.2720083890625C20.23996584375,8.2880081890625,23.64796684375,11.7120074890625,23.63196584375,15.9360097890625C23.63196584375,16.6560087890625,23.51996584375,17.360008789062498,23.32796684375,18.0160087890625L24.89596584375,19.5680087890625C24.97596584375,19.3760087890625,25.10396784375,19.2160087890625,25.24796484375,19.0560097890625C25.40796684375,18.8960097890625,25.63196584375,18.7840097890625,25.82396684375,18.7040097890625C25.96796584375,18.6400087890625,26.12796584375,18.5920107890625,26.27196684375,18.5760097890625L28.17596584375,18.5760097890625C29.10396584375,18.4480097890625,29.83996584375,17.7120087890625,29.93596684375,16.7840097890625L29.93596684375,15.1360087890625C29.88796584375,14.2240097890625,29.15196784375,13.4880087890625,28.23996884375,13.3600077890625Z" fill="#F97316" fill-opacity="1" style="mix-blend-mode:passthrough"/></g></svg>