<?xml version="1.0" encoding="UTF-8"?>
<svg id="_图层_1" xmlns="http://www.w3.org/2000/svg" version="1.1" viewBox="0 0 32 32">
  <!-- Generator: Adobe Illustrator 30.1.0, SVG Export Plug-In . SVG Version: 2.1.1 Build 136)  -->
  <defs>
    <style>
      .st0 {
        fill: #fd9302;
      }

      .st1 {
        fill: #f9e2bd;
      }

      .st2 {
        fill: #f7eee1;
      }

      .st3 {
        fill: #f8efe1;
      }

      .st4 {
        fill: #f6e6ca;
      }

      .st5 {
        fill: #f77e02;
      }

      .st6 {
        fill: #f48202;
      }

      .st7 {
        fill: #f7efe3;
      }
    </style>
  </defs>
  <g id="_图层_2">
    <g>
      <path class="st1" d="M12.15,9.27c.55-.08.85-.56.69-1.06-.08-.26-.32-.47-.59-.55-.32-.08-.6,0-.87.18l-2.54-2.05s-.12-.11-.1-.22c.08-.32-.08-.63-.41-.8l.26-2.58c.45-.1.87-.36.99-.77.12-.4,0-.8-.27-1.09s-.7-.4-1.13-.3c-.49.12-.84.56-.84,1.06s.3.92.8,1.07l-.29,2.57c-.37.1-.55.34-.59.67l-4.19,2.09-.81-.1c-.07-.51-.45-.87-.99-.93-.41-.05-.84.15-1.06.47-.25.32-.29.74-.07,1.11.22.4.69.62,1.15.56.41-.05.8-.34.93-.74.41,0,.8.15,1.11,0l4.04-2.01.25.16c.22.16.55.11.8,0l2.72,2.18c-.12.45.12.85.55,1l-.34,3.49-3.82,2.16-3.26-1.26c.03-.51-.37-.89-.87-.91-.49,0-.91.33-.93.8-.03.4.22.74.59.84.41.12.8,0,1.06-.34l3.19,1.24-.18,4.2-2.8,2.25-.65-.16-1.41-.45c0-.65-.56-1.14-1.26-1.09-.59.05-.99.51-1.02.98-.03.52.32.98.81,1.11.55.12,1.09-.1,1.33-.59l1.98.6.22,1.9c-.41.16-.55.55-.45.91s.45.6.88.55c.37-.04.67-.36.7-.74,0-.36-.25-.65-.65-.77l-.22-1.95,2.79-2.23,1.13.74c.12.08.22.12.34.22.1-.03.3-.27.16-.34l-1.41-.99.08-2.23.1-1.99,3.68-2.1c.26.15.43.36.7.47.12,0,.3-.29.18-.36l-.55-.43s-.03-.15-.03-.22l.34-3.37h0l.03.03.03.03.03-.03v.03h0l-.03.03v.04ZM1.84,7.75c-.1.3-.43.52-.81.45-.45-.1-.7-.51-.55-.89s.59-.59.99-.4c.32.15.48.51.37.82h.03-.03,0ZM8.37,5.54c-.03.11-.16.22-.34.21-.18,0-.29-.12-.3-.25-.03-.15,0-.3.16-.37.15-.07.3-.05.41.03.1.07.15.22.1.37h-.03,0ZM3.83,13.66c-.03.15-.14.32-.36.36-.22.03-.45-.08-.49-.22-.1-.16-.05-.37.05-.51.16-.15.4-.16.59-.08.16.1.25.29.22.47h0v-.03h-.03.01ZM1.84,21.24c-.07.3-.34.51-.62.52-.32.03-.62-.12-.74-.41s-.03-.6.19-.8c.25-.19.59-.22.84-.05.26.15.41.45.34.74h-.03v.03h0v-.03ZM4.82,24.43c.14.08.26.22.22.4-.03.16-.16.29-.32.3-.16.03-.32-.04-.41-.16-.07-.15-.07-.3.03-.44.11-.12.3-.16.45-.1h.03ZM11.61,8.65c-.1-.22-.03-.48.25-.59.22-.1.49,0,.62.22.12.25-.03.49-.25.56-.25.1-.49,0-.62-.22h0v.03Z"/>
      <path class="st1" d="M10.83,14l-2.24,1.25s-.1.22-.03.27c.05.08.18.1.27.04l2.23-1.22c.12-.05.15-.16.05-.3-.05-.08-.18-.1-.3-.03h.03v-.03h-.01Z"/>
      <path class="st1" d="M8.51,19.13c-.1-.08-.26-.08-.32.03-.08.12-.03.22.08.3l.93.65c.12-.08.19-.19.19-.34-.32-.19-.6-.4-.91-.6v-.03s.03,0,0,0h.01Z"/>
    </g>
    <path class="st5" d="M8.05,1.67c-.3-.21-.37-.56-.25-.84.12-.29.41-.47.78-.44.32.03.55.26.62.51.08.3-.03.6-.27.77-.26.19-.62.21-.91,0h.03Z"/>
  </g>
  <g id="_图层_11">
    <g>
      <path class="st4" d="M31.62,25.49l-2.09-4.11-5.47-10.66c-.16-.3-.29-.6-.29-.93v-5.74c0-.32.22-.55.52-.62.59-.12.93-.59.91-1.13-.04-.47-.48-.99-1.06-.99h-10.6c-.52,0-.93.41-1.04.84-.15.59.27,1.13.88,1.26.27.05.51.29.51.59v5.73c0,.4-.16.74-.34,1.07l-2.57,4.9-1.58,3.04-3.48,6.72c-.8,1.57-.55,3.43.62,4.78.87.99,2.23,1.76,3.65,1.76h17.16c1.26-.1,2.43-.59,3.28-1.41.85-.8,1.33-1.85,1.37-3.01.03-.74-.07-1.44-.45-2.14h0l.03.04h.04ZM27.9,27.81c-.22.49-.73,1.37-1.37,1.41h-13.3c-.23-.04-.34-.16-.27-.4l4.9-6.51c-2.12.23-4.44.41-6.47-.36-.26-.1-1.02-.41-1.15-.6,0-.03-.03-.05-.03-.08l2.24-4.34,2.4-4.52c.23-.45.56-.84.77-1.32.16-.32.23-.65.27-.99V3.41h5.89v6.21c-.03.62.1,1.2.41,1.73l.37.65c.22.36.45.71.6,1.07h-6.9c-.26,0-.41.22-.51.41l-.99,1.85s0,.16.03.22.11.08.22.08h9.07c.23,0,.45.1.55.29s.22.36.29.59c.05.15.04.4-.08.55l-7.18,9.33c-.05.12,0,.22.12.23,0,0,10.18.03,10.26.07.29.22,0,.85-.12,1.13h-.05v-.03h.03Z"/>
      <path class="st4" d="M19.41,20.14l1.39-1.92v-.19s-.1-.1-.22-.1h-6.87c-.22,0-.37.1-.48.29l-.99,1.9c0,.12,0,.29.18.29h6.57c.22,0,.32-.1.41-.23h0l-.03-.03h0v.03h.03v-.03h.01Z"/>
    </g>
    <g>
      <path class="st0" d="M27.85,26.67h-10.08c-.08,0-.15-.05-.16-.12-.03-.05-.04-.15,0-.22l5.7-7.24.48-.12c.82-.19,1.63-.19,2.47,0l.52,1,2.72,5.33-1.63,1.37h0v-.03h0v.03l-.03.03h0v-.03h.01Z"/>
      <path class="st6" d="M14.7,26.6l-1.69,2.24s-.03.16,0,.22c.03.05.1.12.19.12h13.3c.29,0,.47-.21.62-.37.45-.52.78-1.09.91-1.76.05-.16-.05-.37-.23-.37h-5.93s2.23-.56,3.37-.82c1.26-.27,2.62-.52,3.9-.59.1,0,.21,0,.3.04.18.34.36.67.52,1.03.3.74.3,1.52-.05,2.25-.48.99-1.58,1.73-2.79,1.73H10.44c-.93,0-1.83-.41-2.4-1.09-.7-.8-.93-1.92-.45-2.87l2.54-4.96c0,.49.12,1.85,1.15,3.16,1.22,1.52,2.94,1.95,3.39,2.05h0v-.03h.03Z"/>
      <path class="st0" d="M14.7,26.6l3.23-4.22v-.1s-.05-.04-.1-.03c-.56.08-1.09.12-1.63.16-2.01.12-4.3,0-5.99-1.14l-.08.12c0,.41.08,2.18,1.58,3.67,1.14,1.13,2.49,1.44,3.01,1.52h-.03.01Z"/>
    </g>
    <g>
      <path class="st3" d="M10.88,27.69c-.59.22-1.2-.04-1.39-.55s.08-1.11.66-1.28c.52-.15,1.09.1,1.28.56.22.48,0,1-.55,1.24h0v.03h0Z"/>
      <path class="st7" d="M12.28,24.58c-.41.32-1.09.15-1.22-.34-.25-.71.6-1.32,1.26-.89.41.3.41.91,0,1.2h0l-.03.03h-.01Z"/>
      <path class="st2" d="M13.68,25.68c-.22.15-.59.07-.7-.16-.19-.37.22-.7.62-.59.3.12.32.56.08.74h0v.03h0Z"/>
    </g>
  </g>
</svg>